<svg width="392" height="89" viewBox="0 0 392 89" fill="none" xmlns="http://www.w3.org/2000/svg">
<path d="M94.1317 71.284C92.157 71.284 90.3716 70.9459 88.7756 70.2696C87.2067 69.5934 85.9624 68.6195 85.0426 67.3481C84.1229 66.0767 83.6495 64.5754 83.6225 62.8442H89.7089C89.79 64.0074 90.1958 64.9271 90.9262 65.6034C91.6836 66.2796 92.7115 66.6178 94.01 66.6178C95.3355 66.6178 96.3769 66.3067 97.1344 65.6845C97.8918 65.0353 98.2705 64.1967 98.2705 63.1688C98.2705 62.3302 98.0135 61.6404 97.4995 61.0994C96.9856 60.5584 96.3364 60.1391 95.5519 59.8415C94.7945 59.5169 93.7395 59.1653 92.3869 58.7865C90.5475 58.2455 89.0461 57.718 87.883 57.2041C86.7468 56.6631 85.7595 55.8651 84.9209 54.8101C84.1094 53.728 83.7036 52.2943 83.7036 50.509C83.7036 48.8318 84.1229 47.3711 84.9615 46.1267C85.8 44.8824 86.9768 43.9356 88.4916 43.2864C90.0065 42.6101 91.7377 42.272 93.6854 42.272C96.6069 42.272 98.9738 42.9888 100.786 44.4225C102.626 45.8292 103.64 47.8039 103.829 50.3467H97.5807C97.5266 49.3728 97.1073 48.5748 96.3228 47.9527C95.5654 47.3035 94.551 46.9788 93.2796 46.9788C92.1705 46.9788 91.2778 47.2629 90.6016 47.8309C89.9524 48.399 89.6277 49.2241 89.6277 50.3061C89.6277 51.0635 89.8712 51.6992 90.3581 52.2132C90.8721 52.7001 91.4942 53.1059 92.2246 53.4305C92.982 53.728 94.037 54.0797 95.3896 54.4855C97.229 55.0265 98.7304 55.5675 99.8935 56.1085C101.057 56.6495 102.058 57.4611 102.896 58.5431C103.735 59.6251 104.154 61.0453 104.154 62.8036C104.154 64.3184 103.762 65.7251 102.977 67.0235C102.193 68.322 101.043 69.3634 99.5284 70.1479C98.0135 70.9053 96.2146 71.284 94.1317 71.284ZM119.061 71.3652C116.897 71.3652 114.949 70.8918 113.218 69.945C111.487 68.9712 110.12 67.6051 109.12 65.8468C108.146 64.0885 107.659 62.0597 107.659 59.7604C107.659 57.4611 108.159 55.4322 109.16 53.6739C110.188 51.9156 111.581 50.5631 113.339 49.6163C115.098 48.6425 117.059 48.1556 119.223 48.1556C121.387 48.1556 123.348 48.6425 125.107 49.6163C126.865 50.5631 128.245 51.9156 129.245 53.6739C130.273 55.4322 130.787 57.4611 130.787 59.7604C130.787 62.0597 130.26 64.0885 129.205 65.8468C128.177 67.6051 126.77 68.9712 124.985 69.945C123.227 70.8918 121.252 71.3652 119.061 71.3652ZM119.061 66.4149C120.089 66.4149 121.049 66.1714 121.942 65.6845C122.861 65.1705 123.592 64.4131 124.133 63.4122C124.674 62.4114 124.944 61.1941 124.944 59.7604C124.944 57.6234 124.376 55.9868 123.24 54.8506C122.131 53.6875 120.765 53.1059 119.142 53.1059C117.519 53.1059 116.153 53.6875 115.044 54.8506C113.962 55.9868 113.421 57.6234 113.421 59.7604C113.421 61.8974 113.948 63.5475 115.003 64.7107C116.085 65.8468 117.438 66.4149 119.061 66.4149ZM144.327 65.7657L150.008 48.5207H156.054L147.736 71H140.838L132.56 48.5207H138.647L144.327 65.7657ZM180.141 59.2735C180.141 60.085 180.087 60.8154 179.979 61.4646H163.546C163.681 63.0876 164.249 64.359 165.25 65.2787C166.251 66.1985 167.482 66.6583 168.942 66.6583C171.052 66.6583 172.554 65.7521 173.446 63.9397H179.573C178.924 66.1038 177.68 67.8892 175.84 69.2958C174.001 70.6754 171.742 71.3652 169.064 71.3652C166.9 71.3652 164.952 70.8918 163.221 69.945C161.517 68.9712 160.178 67.6051 159.204 65.8468C158.257 64.0885 157.784 62.0597 157.784 59.7604C157.784 57.434 158.257 55.3917 159.204 53.6334C160.151 51.875 161.476 50.5225 163.18 49.5757C164.885 48.6289 166.846 48.1556 169.064 48.1556C171.201 48.1556 173.108 48.6154 174.785 49.5352C176.489 50.4549 177.801 51.7668 178.721 53.4711C179.668 55.1482 180.141 57.0823 180.141 59.2735ZM174.258 57.6504C174.231 56.1897 173.703 55.0265 172.675 54.1608C171.647 53.2682 170.39 52.8218 168.902 52.8218C167.495 52.8218 166.305 53.2546 165.331 54.1203C164.384 54.9588 163.803 56.1356 163.586 57.6504H174.258ZM189.968 52.0103C190.699 50.8201 191.646 49.8868 192.809 49.2105C193.999 48.5343 195.352 48.1961 196.866 48.1961V54.1608H195.365C193.58 54.1608 192.227 54.5801 191.307 55.4187C190.415 56.2573 189.968 57.718 189.968 59.8009V71H184.288V48.5207H189.968V52.0103ZM213.15 48.1961C215.828 48.1961 217.992 49.0482 219.642 50.7524C221.292 52.4296 222.117 54.783 222.117 57.8127V71H216.436V58.5837C216.436 56.7983 215.99 55.4322 215.097 54.4855C214.204 53.5116 212.987 53.0247 211.445 53.0247C209.876 53.0247 208.632 53.5116 207.712 54.4855C206.82 55.4322 206.373 56.7983 206.373 58.5837V71H200.693V48.5207H206.373V51.3205C207.131 50.3467 208.091 49.5893 209.254 49.0482C210.444 48.4802 211.743 48.1961 213.15 48.1961Z" fill="white"/>
<path d="M245.007 42.6778V47.2629H233.2V54.526H242.248V59.03H233.2V71H227.519V42.6778H245.007ZM251.916 45.8427C250.915 45.8427 250.077 45.5316 249.401 44.9095C248.751 44.2602 248.427 43.4622 248.427 42.5155C248.427 41.5687 248.751 40.7842 249.401 40.162C250.077 39.5128 250.915 39.1882 251.916 39.1882C252.917 39.1882 253.742 39.5128 254.391 40.162C255.068 40.7842 255.406 41.5687 255.406 42.5155C255.406 43.4622 255.068 44.2602 254.391 44.9095C253.742 45.5316 252.917 45.8427 251.916 45.8427ZM254.716 48.5207V71H249.035V48.5207H254.716ZM272.786 48.1961C275.464 48.1961 277.628 49.0482 279.278 50.7524C280.928 52.4296 281.753 54.783 281.753 57.8127V71H276.072V58.5837C276.072 56.7983 275.626 55.4322 274.733 54.4855C273.841 53.5116 272.623 53.0247 271.081 53.0247C269.512 53.0247 268.268 53.5116 267.348 54.4855C266.456 55.4322 266.009 56.7983 266.009 58.5837V71H260.329V48.5207H266.009V51.3205C266.767 50.3467 267.727 49.5893 268.89 49.0482C270.08 48.4802 271.379 48.1961 272.786 48.1961ZM285.694 59.6792C285.694 57.4069 286.141 55.3917 287.033 53.6334C287.953 51.875 289.184 50.5225 290.726 49.5757C292.295 48.6289 294.039 48.1556 295.96 48.1556C297.637 48.1556 299.098 48.4937 300.342 49.17C301.614 49.8462 302.628 50.6983 303.385 51.7263V48.5207H309.107V71H303.385V67.7133C302.655 68.7683 301.641 69.6475 300.342 70.3508C299.071 71.0271 297.597 71.3652 295.919 71.3652C294.026 71.3652 292.295 70.8783 290.726 69.9044C289.184 68.9306 287.953 67.5645 287.033 65.8062C286.141 64.0209 285.694 61.9785 285.694 59.6792ZM303.385 59.7604C303.385 58.3808 303.115 57.2041 302.574 56.2302C302.033 55.2294 301.303 54.4719 300.383 53.958C299.463 53.4169 298.476 53.1464 297.421 53.1464C296.366 53.1464 295.392 53.4034 294.499 53.9174C293.607 54.4314 292.876 55.1888 292.308 56.1897C291.767 57.1635 291.497 58.3267 291.497 59.6792C291.497 61.0318 291.767 62.222 292.308 63.2499C292.876 64.2508 293.607 65.0218 294.499 65.5628C295.419 66.1038 296.393 66.3743 297.421 66.3743C298.476 66.3743 299.463 66.1173 300.383 65.6034C301.303 65.0623 302.033 64.3049 302.574 63.3311C303.115 62.3302 303.385 61.14 303.385 59.7604ZM327.112 48.1961C329.79 48.1961 331.954 49.0482 333.604 50.7524C335.254 52.4296 336.079 54.783 336.079 57.8127V71H330.398V58.5837C330.398 56.7983 329.952 55.4322 329.059 54.4855C328.167 53.5116 326.949 53.0247 325.408 53.0247C323.839 53.0247 322.594 53.5116 321.675 54.4855C320.782 55.4322 320.336 56.7983 320.336 58.5837V71H314.655V48.5207H320.336V51.3205C321.093 50.3467 322.053 49.5893 323.216 49.0482C324.407 48.4802 325.705 48.1961 327.112 48.1961ZM340.02 59.7604C340.02 57.434 340.494 55.4052 341.441 53.6739C342.387 51.9156 343.699 50.5631 345.376 49.6163C347.054 48.6425 348.974 48.1556 351.138 48.1556C353.925 48.1556 356.224 48.8589 358.036 50.2655C359.876 51.6451 361.107 53.5928 361.729 56.1085H355.602C355.277 55.1347 354.723 54.3773 353.938 53.8362C353.181 53.2682 352.234 52.9841 351.098 52.9841C349.475 52.9841 348.19 53.5793 347.243 54.7695C346.296 55.9327 345.823 57.5963 345.823 59.7604C345.823 61.8974 346.296 63.561 347.243 64.7513C348.19 65.9144 349.475 66.496 351.098 66.496C353.397 66.496 354.898 65.4681 355.602 63.4122H361.729C361.107 65.8468 359.876 67.7809 358.036 69.2146C356.197 70.6483 353.897 71.3652 351.138 71.3652C348.974 71.3652 347.054 70.8918 345.376 69.945C343.699 68.9712 342.387 67.6186 341.441 65.8874C340.494 64.1291 340.02 62.0867 340.02 59.7604ZM386.787 59.2735C386.787 60.085 386.733 60.8154 386.625 61.4646H370.191C370.327 63.0876 370.895 64.359 371.896 65.2787C372.897 66.1985 374.127 66.6583 375.588 66.6583C377.698 66.6583 379.199 65.7521 380.092 63.9397H386.219C385.57 66.1038 384.325 67.8892 382.486 69.2958C380.647 70.6754 378.388 71.3652 375.71 71.3652C373.546 71.3652 371.598 70.8918 369.867 69.945C368.163 68.9712 366.824 67.6051 365.85 65.8468C364.903 64.0885 364.43 62.0597 364.43 59.7604C364.43 57.434 364.903 55.3917 365.85 53.6334C366.797 51.875 368.122 50.5225 369.826 49.5757C371.53 48.6289 373.492 48.1556 375.71 48.1556C377.847 48.1556 379.754 48.6154 381.431 49.5352C383.135 50.4549 384.447 51.7668 385.367 53.4711C386.314 55.1482 386.787 57.0823 386.787 59.2735ZM380.904 57.6504C380.877 56.1897 380.349 55.0265 379.321 54.1608C378.293 53.2682 377.035 52.8218 375.547 52.8218C374.141 52.8218 372.951 53.2546 371.977 54.1203C371.03 54.9588 370.448 56.1356 370.232 57.6504H380.904Z" fill="#5CE1E6"/>
<path d="M78.7991 24.3198L43.9429 84.0302L9.64937 23.9998L78.7991 24.3198Z" stroke="#5CE1E6" stroke-width="4"/>
<path d="M64.668 31.9095L43.8674 69.6895L23.4229 31.7186L64.668 31.9095Z" stroke="#5CE1E6" stroke-width="4"/>
<path d="M49.3779 44.9999C49.3779 47.7613 47.1221 65.4999 44.3393 65.4999C41.5566 65.4999 39.3008 47.7613 39.3008 44.9999C39.3008 42.2385 -1.51156 20.4999 44.3393 39.9999C47.1221 39.9999 83.6401 16.5 49.3779 44.9999Z" fill="#5CE1E6"/>
</svg>
